<svg xmlns="http://www.w3.org/2000/svg" xmlns:xlink="http://www.w3.org/1999/xlink" width="108.403" height="95.817" viewBox="0 0 108.403 95.817">
  <defs>
    <filter id="Icon" x="28" y="1.5" width="53" height="61" filterUnits="userSpaceOnUse">
      <feOffset dy="2" input="SourceAlpha"/>
      <feGaussianBlur stdDeviation="1.5" result="blur"/>
      <feFlood flood-color="#00d8ff" flood-opacity="0.847"/>
      <feComposite operator="in" in2="blur"/>
      <feComposite in="SourceGraphic"/>
    </filter>
    <filter id="Path_299" x="0" y="62.443" width="108.403" height="33.374" filterUnits="userSpaceOnUse">
      <feOffset dy="3" input="SourceAlpha"/>
      <feGaussianBlur stdDeviation="3" result="blur-2"/>
      <feFlood flood-color="#00d8ff" flood-opacity="0.851"/>
      <feComposite operator="in" in2="blur-2"/>
      <feComposite in="SourceGraphic"/>
    </filter>
    <linearGradient id="linear-gradient" x1="0.5" x2="0.5" y2="1" gradientUnits="objectBoundingBox">
      <stop offset="0" stop-color="#ff9d00"/>
      <stop offset="1" stop-color="#ff0"/>
    </linearGradient>
  </defs>
  <g id="Pazzing_logo" data-name="Pazzing logo" transform="translate(-7.5 -20)">
    <g id="Group_234" data-name="Group 234" transform="translate(2 0.539)">
      <g transform="matrix(1, 0, 0, 1, 5.5, 19.46)" filter="url(#Icon)">
        <path id="Icon-2" data-name="Icon" d="M581.8,523.778c-13.636-7.465-18.758-15.666-20.682-20.822a1.555,1.555,0,0,1,1.552-2.041h17.155a1.593,1.593,0,0,0,1.642-1.539v-4.307a1.593,1.593,0,0,1,1.642-1.538H602.15a1.593,1.593,0,0,1,1.642,1.492c0,.168.007.337.007.508a19.412,19.412,0,0,1-.943,5.988,1.632,1.632,0,0,1-1.571,1.089h-6.054c-1.269,0-1.611.965-1.611,2.154s.342,2.154,1.611,2.154h1.542a1.53,1.53,0,0,1,1.216,2.573,22.629,22.629,0,0,1-16.189,6.658h-.019a1.214,1.214,0,0,0-1.2,1.635c.8,1.928,1.676,3.68,2.374,4.983a.781.781,0,0,1-.737,1.123A.862.862,0,0,1,581.8,523.778ZM561.8,497.193a1.613,1.613,0,0,1-1.615-1.263,13.325,13.325,0,0,1-.2-1.448,19.572,19.572,0,0,1-.172-3.359c.321-9.174,7.1-16.826,16.13-19.18a1.624,1.624,0,0,1,2.083,1.483v22.228a1.593,1.593,0,0,1-1.643,1.538Zm21.3-6.742a1.594,1.594,0,0,1-1.643-1.525c-.031-3.473-.105-11.945-.136-15.489a1.6,1.6,0,0,1,1.752-1.548c11.094.674,18.634,7.693,20.36,16.761a1.571,1.571,0,0,1-1.619,1.8Z" transform="translate(-527.3 -467.89)" fill="#fff"/>
      </g>
      <g id="Group_233" data-name="Group 233" transform="translate(15 88.42)">
        <g transform="matrix(1, 0, 0, 1, -9.5, -68.96)" filter="url(#Path_299)">
          <path id="Path_299-2" data-name="Path 299" d="M88.76,6.889a.643.643,0,0,1,.643.643v6.182a.643.643,0,0,1-.643.643H84.385a6.894,6.894,0,0,1-5-2.175A7.321,7.321,0,0,1,77.324,7.1,7.087,7.087,0,0,1,84.385,0H88.76a.643.643,0,0,1,0,1.287H84.385A5.8,5.8,0,0,0,78.609,7.1a5.956,5.956,0,0,0,5.776,5.975h3.733V7.532a.643.643,0,0,1,.643-.643M73.017,14.358a.643.643,0,0,1-.643-.643V11.846L63.818,2.321V13.714a.643.643,0,1,1-1.285,0V.644a.642.642,0,0,1,1.12-.43l8.722,9.708V.644a.643.643,0,1,1,1.285,0V13.714a.643.643,0,0,1-.643.643m-15.778,0a.643.643,0,0,1-.643-.643V.644a.643.643,0,1,1,1.285,0V13.714a.643.643,0,0,1-.643.643m-4.958-.643a.643.643,0,0,1-.643.643h-8.92a.644.644,0,0,1-.53-1.006L50.421,1.287h-7.7a.643.643,0,0,1,0-1.287h8.92a.643.643,0,0,1,.53,1.006L43.935,13.071h7.7a.643.643,0,0,1,.643.643m-13.816,0a.643.643,0,0,1-.643.643H28.9a.644.644,0,0,1-.531-1.006L36.605,1.287H28.9A.643.643,0,0,1,28.9,0h8.92a.643.643,0,0,1,.53,1.006L30.12,13.071h7.7a.643.643,0,0,1,.643.643m-14.321.643H11.093a.643.643,0,0,1-.575-.931L17.044.356a.642.642,0,0,1,1.149,0l6.526,13.071a.643.643,0,0,1-.575.931M17.618,2.082,12.132,13.071H23.1ZM5.375,9.455H1.285v4.259a.642.642,0,1,1-1.285,0v-4.9a.643.643,0,0,1,.642-.643H5.375A3.334,3.334,0,0,0,8.7,4.836,3.534,3.534,0,0,0,5.375,1.287H.642A.643.643,0,0,1,.642,0H5.375A4.792,4.792,0,0,1,9.988,4.836a4.622,4.622,0,0,1-4.613,4.62" transform="translate(9.5 68.96)" fill="#fff" stroke="#fff" stroke-width="1" fill-rule="evenodd"/>
        </g>
        <path id="Path_298" data-name="Path 298" d="M154.077,57.284l-2.441,4.889a.091.091,0,0,0,.081.132H156.6a.091.091,0,0,0,.081-.132l-2.441-4.889a.091.091,0,0,0-.163,0" transform="translate(-136.54 -51.267)" fill="url(#linear-gradient)"/>
      </g>
    </g>
    <rect id="Rectangle_1024" data-name="Rectangle 1024" width="104" height="88" transform="translate(10 20)" fill="none"/>
  </g>
</svg>
